<svg width="56" height="56" viewBox="0 0 56 56" fill="none" xmlns="http://www.w3.org/2000/svg">
<rect width="56" height="56" rx="20" fill="white"/>
<path d="M28 16C21.3829 16 16 21.3829 16 28C16 34.6171 21.3829 40 28 40C34.6171 40 40 34.6171 40 28C40 21.3829 34.6171 16 28 16ZM33.25 28.9999H28.9999V33.25C28.9999 33.8021 28.5521 34.2499 28 34.2499C27.4479 34.2499 27.0001 33.8021 27.0001 33.25V28.9999H22.75C22.1979 28.9999 21.7501 28.5521 21.7501 28C21.7501 27.4479 22.1979 27.0001 22.75 27.0001H27.0001V22.75C27.0001 22.1979 27.4479 21.7501 28 21.7501C28.5521 21.7501 28.9999 22.1979 28.9999 22.75V27.0001H33.25C33.8021 27.0001 34.2499 27.4479 34.2499 28C34.2499 28.5521 33.8021 28.9999 33.25 28.9999Z" fill="#D24644"/>
</svg>
