<svg width="24" height="23" viewBox="0 0 24 23" fill="none" xmlns="http://www.w3.org/2000/svg">
<path d="M22.2857 0H1.70893C0.766071 0 0 0.74442 0 1.65826V21.3417C0 22.2556 0.766071 23 1.70893 23H22.2857C23.2286 23 24 22.2556 24 21.3417V1.65826C24 0.74442 23.2286 0 22.2857 0ZM7.25357 19.7143H3.69643V8.73795H7.25893V19.7143H7.25357ZM5.475 7.23884C4.33393 7.23884 3.4125 6.35067 3.4125 5.26228C3.4125 4.17388 4.33393 3.28571 5.475 3.28571C6.61071 3.28571 7.5375 4.17388 7.5375 5.26228C7.5375 6.3558 6.61607 7.23884 5.475 7.23884ZM20.5875 19.7143H17.0304V14.375C17.0304 13.1018 17.0036 11.4641 15.1821 11.4641C13.3286 11.4641 13.0446 12.8502 13.0446 14.2826V19.7143H9.4875V8.73795H12.9V10.2371H12.9482C13.425 9.37455 14.5875 8.46585 16.3179 8.46585C19.9179 8.46585 20.5875 10.7402 20.5875 13.6973V19.7143Z" fill="white"/>
</svg>
