<svg width="60" height="60" viewBox="0 0 60 60" fill="none" xmlns="http://www.w3.org/2000/svg">
<path d="M30.0004 57.6766C45.2855 57.6766 57.6766 45.2855 57.6766 30.0004C57.6766 14.7153 45.2855 2.32422 30.0004 2.32422C14.7153 2.32422 2.32422 14.7153 2.32422 30.0004C2.32422 45.2855 14.7153 57.6766 30.0004 57.6766Z" fill="white"/>
<path d="M30 60C13.4593 60 0 46.543 0 30C0 13.4593 13.4593 0 30 0C46.543 0 60 13.4593 60 30C60 46.543 46.543 60 30 60ZM30 4.64754C16.0201 4.64754 4.64754 16.0201 4.64754 30C4.64754 43.9799 16.0201 55.3525 30 55.3525C43.9799 55.3525 55.3525 43.9775 55.3525 30C55.3525 16.0201 43.9799 4.64754 30 4.64754Z" fill="white"/>
<path d="M26.3749 41.039C25.7522 41.039 25.1572 40.7903 24.718 40.3442L16.1433 31.63C15.244 30.7144 15.2556 29.2458 16.1712 28.3442C17.0868 27.4472 18.5577 27.4565 19.457 28.3721L26.3075 35.3341L40.4803 19.7253C41.347 18.7749 42.8157 18.7075 43.7614 19.5673C44.7118 20.4295 44.7816 21.8981 43.9194 22.8508L28.0945 40.279C27.6647 40.7531 27.0605 41.0273 26.4214 41.0412C26.4052 41.039 26.3912 41.039 26.3749 41.039Z" fill="#000F93"/>
</svg>
