<svg width="22" height="19" viewBox="0 0 22 19" fill="none" xmlns="http://www.w3.org/2000/svg">
<g clip-path="url(#clip0)">
<path d="M10.9717 0.171875C9.7558 0.171875 8.7666 1.16107 8.7666 2.37696C8.7666 3.59285 9.7558 4.58198 10.9717 4.58198C12.1876 4.58198 13.177 3.59285 13.177 2.37696C13.177 1.16107 12.1881 0.171875 10.9717 0.171875Z" fill="white"/>
<path d="M10.9141 11.6447C12.1298 11.6447 13.1192 10.6558 13.1192 9.43967C13.1192 8.22351 12.1306 7.23438 10.9141 7.23438C9.69777 7.23438 8.70898 8.22351 8.70898 9.43967C8.70898 10.6558 9.69818 11.6447 10.9141 11.6447Z" fill="white"/>
<path d="M5.44307 0.316503C4.24559 0.105354 3.09971 0.907762 2.88857 2.10518C2.67744 3.3026 3.47938 4.44839 4.67727 4.65961C5.87516 4.87083 7.02061 4.06842 7.23175 2.871C7.44289 1.67358 6.64049 0.527641 5.44307 0.316503Z" fill="white"/>
<path d="M3.39248 11.6091C4.58989 11.8202 5.73599 11.0182 5.94716 9.82053C6.15835 8.62284 5.35574 7.47693 4.15832 7.26579C2.9609 7.05466 1.81456 7.85698 1.60338 9.05461C1.39221 10.2522 2.19506 11.398 3.39248 11.6091Z" fill="white"/>
<path d="M2.98547 14.2072C1.78805 13.9961 0.641752 14.7981 0.430567 15.9958C0.219466 17.193 1.02224 18.3392 2.21966 18.5503C3.41708 18.7614 4.56289 17.9594 4.77408 16.7617C4.98526 15.564 4.18289 14.4183 2.98547 14.2072Z" fill="white"/>
<path d="M10.9643 14.2812C9.74833 14.2812 8.75879 15.2702 8.75879 16.4863C8.75879 17.702 9.74798 18.6914 10.9643 18.6914C12.18 18.6914 13.1693 17.7025 13.1693 16.4863C13.1693 15.2702 12.18 14.2812 10.9643 14.2812Z" fill="white"/>
<path d="M17.3808 4.64776C18.578 4.43666 19.3806 3.29075 19.1695 2.09333C18.9583 0.895915 17.813 0.0933448 16.615 0.304589C15.4169 0.515834 14.6151 1.66167 14.8263 2.85909C15.0374 4.05651 16.1835 4.85888 17.3808 4.64776Z" fill="white"/>
<path d="M18.5525 11.6204C19.7502 11.4092 20.5524 10.2636 20.3412 9.06599C20.13 7.8683 18.9843 7.06592 17.7867 7.2771C16.589 7.48829 15.786 8.63426 15.9972 9.83195C16.2084 11.0296 17.3545 11.8317 18.5525 11.6204Z" fill="white"/>
<path d="M19.0583 14.203C17.8611 14.4141 17.0584 15.5598 17.2696 16.7575C17.4807 17.9547 18.6269 18.7572 19.8241 18.5461C21.0218 18.335 21.824 17.1894 21.6128 15.9917C21.4016 14.794 20.2555 13.9919 19.0583 14.203Z" fill="white"/>
</g>
<defs>
<clipPath id="clip0">
<rect width="22" height="18.8571" fill="white"/>
</clipPath>
</defs>
</svg>
