<svg width="205" height="45" viewBox="0 0 205 45" fill="none" xmlns="http://www.w3.org/2000/svg">
<path d="M11.8327 1.77127C10.9531 0.247218 8.93704 -0.180886 7.62934 0.966433C3.30925 4.75944 0.561523 10.419 0.561523 16.7549H20.4884L11.8327 1.77127ZM39.1698 8.53532H35.4336C32.6858 8.53532 30.4518 10.9926 30.4518 14.015V19.4948H0.561523C0.561523 23.8272 2.35183 27.7486 5.25524 30.6854C2.562 31.4475 0.561523 34.1103 0.561523 37.3039C0.561523 41.0884 3.34817 44.1536 6.78867 44.1536C10.2292 44.1536 13.0158 41.0884 13.0158 37.3039C13.0158 36.5419 12.8757 35.8312 12.6733 35.1463C14.3547 35.6514 16.145 35.934 17.9975 35.934C19.8501 35.934 21.6482 35.6514 23.3218 35.1463C23.1116 35.8312 22.9793 36.5419 22.9793 37.3039C22.9793 41.0884 25.7659 44.1536 29.2064 44.1536C32.6469 44.1536 35.4336 41.0884 35.4336 37.3039C35.4336 34.1103 33.4331 31.4475 30.7398 30.6854C33.6433 27.7486 35.4336 23.8272 35.4336 19.4948V14.015H39.1698C39.8548 14.015 40.4153 13.3986 40.4153 12.6451V9.90525C40.4153 9.15179 39.8548 8.53532 39.1698 8.53532ZM6.78867 40.0438C5.4187 40.0438 4.29781 38.8108 4.29781 37.3039C4.29781 35.797 5.4187 34.5641 6.78867 34.5641C8.15865 34.5641 9.27953 35.797 9.27953 37.3039C9.27953 38.8108 8.15865 40.0438 6.78867 40.0438ZM31.6973 37.3039C31.6973 38.8108 30.5764 40.0438 29.2064 40.0438C27.8364 40.0438 26.7156 38.8108 26.7156 37.3039C26.7156 35.797 27.8364 34.5641 29.2064 34.5641C30.5764 34.5641 31.6973 35.797 31.6973 37.3039Z" fill="white" fill-opacity="0.21"/>
<path d="M63.4453 10.1965H71.119C74.6157 10.1965 77.1511 10.6968 78.7252 11.6975C80.3105 12.6869 81.1032 14.2666 81.1032 16.4366C81.1032 17.9095 80.7546 19.1182 80.0575 20.0626C79.3717 21.0071 78.4553 21.5749 77.3085 21.766V21.9347C78.8713 22.2832 79.9957 22.9353 80.6815 23.891C81.3786 24.8467 81.7272 26.1172 81.7272 27.7026C81.7272 29.9513 80.912 31.7052 79.2817 32.9645C77.6627 34.2238 75.459 34.8534 72.6706 34.8534H63.4453V10.1965ZM68.6735 19.9614H71.7093C73.1259 19.9614 74.1491 19.7422 74.7787 19.3037C75.4196 18.8652 75.74 18.14 75.74 17.1281C75.74 16.1836 75.3915 15.509 74.6944 15.1043C74.0085 14.6883 72.9179 14.4803 71.4225 14.4803H68.6735V19.9614ZM68.6735 24.1103V30.5359H72.0803C73.5195 30.5359 74.582 30.2605 75.2678 29.7095C75.9537 29.1586 76.2966 28.3153 76.2966 27.1797C76.2966 25.1334 74.8349 24.1103 71.9116 24.1103H68.6735Z" fill="white" fill-opacity="0.21"/>
<path d="M100.852 34.8534H86.6518V10.1965H100.852V14.4803H91.88V19.894H100.228V24.1777H91.88V30.5359H100.852V34.8534Z" fill="white" fill-opacity="0.21"/>
<path d="M106.013 10.1965H113.687C117.183 10.1965 119.719 10.6968 121.293 11.6975C122.878 12.6869 123.671 14.2666 123.671 16.4366C123.671 17.9095 123.322 19.1182 122.625 20.0626C121.939 21.0071 121.023 21.5749 119.876 21.766V21.9347C121.439 22.2832 122.563 22.9353 123.249 23.891C123.946 24.8467 124.295 26.1172 124.295 27.7026C124.295 29.9513 123.48 31.7052 121.849 32.9645C120.23 34.2238 118.027 34.8534 115.238 34.8534H106.013V10.1965ZM111.241 19.9614H114.277C115.694 19.9614 116.717 19.7422 117.346 19.3037C117.987 18.8652 118.308 18.14 118.308 17.1281C118.308 16.1836 117.959 15.509 117.262 15.1043C116.576 14.6883 115.486 14.4803 113.99 14.4803H111.241V19.9614ZM111.241 24.1103V30.5359H114.648C116.087 30.5359 117.15 30.2605 117.836 29.7095C118.521 29.1586 118.864 28.3153 118.864 27.1797C118.864 25.1334 117.403 24.1103 114.479 24.1103H111.241Z" fill="white" fill-opacity="0.21"/>
<path d="M136.893 20.3493L142.037 10.1965H147.67L139.49 25.2571V34.8534H134.296V25.4258L126.116 10.1965H131.783L136.893 20.3493Z" fill="white" fill-opacity="0.21"/>
<path d="M149.643 32.4417C149.643 31.4972 149.896 30.7833 150.402 30.2998C150.908 29.8163 151.645 29.5746 152.612 29.5746C153.545 29.5746 154.264 29.822 154.77 30.3167C155.288 30.8114 155.546 31.5197 155.546 32.4417C155.546 33.3299 155.288 34.0326 154.77 34.5498C154.253 35.0558 153.534 35.3088 152.612 35.3088C151.667 35.3088 150.936 35.0614 150.419 34.5667C149.902 34.0607 149.643 33.3524 149.643 32.4417Z" fill="white" fill-opacity="0.21"/>
<path d="M171.467 12.4058C168.757 12.4058 166.615 13.3109 165.041 15.1211C163.478 16.9201 162.697 19.388 162.697 22.525C162.697 25.7518 163.45 28.2479 164.957 30.0131C166.475 31.7671 168.634 32.6441 171.433 32.6441C173.153 32.6441 175.115 32.3349 177.319 31.7165V34.2294C175.61 34.8703 173.502 35.1907 170.995 35.1907C167.363 35.1907 164.558 34.0889 162.579 31.8851C160.611 29.6814 159.628 26.5501 159.628 22.4912C159.628 19.9502 160.1 17.724 161.044 15.8126C162 13.9012 163.372 12.4283 165.159 11.3939C166.958 10.3595 169.072 9.84232 171.501 9.84232C174.087 9.84232 176.347 10.3145 178.28 11.259L177.066 13.7213C175.2 12.8443 173.333 12.4058 171.467 12.4058Z" fill="white" fill-opacity="0.21"/>
<path d="M204.101 22.4912C204.101 26.4377 203.1 29.5409 201.099 31.8008C199.109 34.0607 196.337 35.1907 192.784 35.1907C189.153 35.1907 186.348 34.0832 184.369 31.8683C182.401 29.6421 181.417 26.5051 181.417 22.4575C181.417 18.4436 182.407 15.3348 184.386 13.131C186.364 10.9161 189.175 9.80859 192.818 9.80859C196.36 9.80859 199.126 10.9329 201.116 13.1816C203.106 15.4303 204.101 18.5335 204.101 22.4912ZM184.453 22.4912C184.453 25.8305 185.161 28.3659 186.578 30.0974C188.006 31.8177 190.075 32.6778 192.784 32.6778C195.517 32.6778 197.58 31.8177 198.974 30.0974C200.368 28.3772 201.065 25.8418 201.065 22.4912C201.065 19.1744 200.368 16.6615 198.974 14.9525C197.591 13.2322 195.539 12.3721 192.818 12.3721C190.086 12.3721 188.006 13.2379 186.578 14.9693C185.161 16.6896 184.453 19.1969 184.453 22.4912Z" fill="white" fill-opacity="0.21"/>
</svg>
