<svg width="24" height="24" viewBox="0 0 24 24" fill="none" xmlns="http://www.w3.org/2000/svg">
<path d="M11.9995 0C7.20677 0 3.30762 3.89916 3.30762 8.69184C3.30762 14.6397 11.086 23.3715 11.4172 23.7404C11.7282 24.0868 12.2713 24.0862 12.5818 23.7404C12.913 23.3715 20.6914 14.6397 20.6914 8.69184C20.6913 3.89916 16.7922 0 11.9995 0ZM11.9995 22.0185C9.38168 18.909 4.87287 12.774 4.87287 8.69194C4.87287 4.76222 8.06984 1.56525 11.9995 1.56525C15.9292 1.56525 19.1262 4.76222 19.1262 8.69189C19.1261 12.7741 14.618 18.908 11.9995 22.0185Z" fill="white"/>
<path d="M12 4.32031C9.58867 4.32031 7.62695 6.28208 7.62695 8.69342C7.62695 11.1048 9.58872 13.0665 12 13.0665C14.4113 13.0665 16.373 11.1048 16.373 8.69342C16.373 6.28208 14.4113 4.32031 12 4.32031ZM12 11.5013C10.4517 11.5013 9.1922 10.2417 9.1922 8.69342C9.1922 7.14514 10.4518 5.88556 12 5.88556C13.5482 5.88556 14.8078 7.14514 14.8078 8.69342C14.8078 10.2417 13.5482 11.5013 12 11.5013Z" fill="white"/>
</svg>
