<svg width="58" height="58" viewBox="0 0 58 58" fill="none" xmlns="http://www.w3.org/2000/svg">
<rect width="58" height="57.9219" rx="28.9609" fill="#D24644"/>
<path d="M41.4776 22.9845C41.1901 21.8774 40.3429 21.0055 39.2673 20.7096C37.3177 20.1719 29.5 20.1719 29.5 20.1719C29.5 20.1719 21.6823 20.1719 19.7327 20.7096C18.6571 21.0055 17.8099 21.8774 17.5224 22.9845C17 24.9912 17 29.1779 17 29.1779C17 29.1779 17 33.3647 17.5224 35.3714C17.8099 36.4785 18.6571 37.3141 19.7327 37.6099C21.6823 38.1476 29.5 38.1476 29.5 38.1476C29.5 38.1476 37.3177 38.1476 39.2673 37.6099C40.3429 37.3141 41.1901 36.4785 41.4776 35.3714C42 33.3647 42 29.1779 42 29.1779C42 29.1779 42 24.9912 41.4776 22.9845ZM26.9432 32.9792V25.3767L33.4772 29.178L26.9432 32.9792Z" fill="white"/>
</svg>
