<svg width="58" height="58" viewBox="0 0 58 58" fill="none" xmlns="http://www.w3.org/2000/svg">
<rect x="0.5" y="0.5" width="57" height="56.9219" rx="28.4609" stroke="#32325B"/>
<path d="M28.802 24.4537C26.3048 24.4537 24.2906 26.4657 24.2906 28.96C24.2906 31.4544 26.3048 33.4664 28.802 33.4664C31.2991 33.4664 33.3134 31.4544 33.3134 28.96C33.3134 26.4657 31.2991 24.4537 28.802 24.4537ZM28.802 31.8897C27.1882 31.8897 25.869 30.5759 25.869 28.96C25.869 27.3442 27.1843 26.0303 28.802 26.0303C30.4196 26.0303 31.735 27.3442 31.735 28.96C31.735 30.5759 30.4157 31.8897 28.802 31.8897ZM34.5502 24.2693C34.5502 24.8537 34.079 25.3204 33.4979 25.3204C32.9129 25.3204 32.4456 24.8498 32.4456 24.2693C32.4456 23.6889 32.9168 23.2183 33.4979 23.2183C34.079 23.2183 34.5502 23.6889 34.5502 24.2693ZM37.5382 25.3361C37.4714 23.9281 37.1494 22.681 36.1168 21.6534C35.0881 20.6258 33.8395 20.3042 32.4299 20.2336C30.9772 20.1513 26.6228 20.1513 25.1701 20.2336C23.7644 20.3003 22.5158 20.6219 21.4832 21.6495C20.4506 22.677 20.1325 23.9242 20.0618 25.3322C19.9794 26.7833 19.9794 31.1328 20.0618 32.5839C20.1286 33.9919 20.4506 35.2391 21.4832 36.2666C22.5158 37.2942 23.7605 37.6158 25.1701 37.6864C26.6228 37.7688 30.9772 37.7688 32.4299 37.6864C33.8395 37.6197 35.0881 37.2981 36.1168 36.2666C37.1455 35.2391 37.4675 33.9919 37.5382 32.5839C37.6206 31.1328 37.6206 26.7873 37.5382 25.3361ZM35.6613 34.1409C35.3551 34.9096 34.7622 35.5019 33.9887 35.8117C32.8304 36.2706 30.082 36.1647 28.802 36.1647C27.522 36.1647 24.7696 36.2666 23.6152 35.8117C22.8456 35.5058 22.2528 34.9136 21.9426 34.1409C21.4832 32.984 21.5892 30.2386 21.5892 28.96C21.5892 27.6815 21.4871 24.9322 21.9426 23.7791C22.2488 23.0104 22.8417 22.4182 23.6152 22.1083C24.7735 21.6495 27.522 21.7554 28.802 21.7554C30.082 21.7554 32.8344 21.6534 33.9887 22.1083C34.7583 22.4143 35.3512 23.0065 35.6613 23.7791C36.1207 24.9361 36.0147 27.6815 36.0147 28.96C36.0147 30.2386 36.1207 32.9879 35.6613 34.1409Z" fill="white"/>
</svg>
