<svg width="58" height="58" viewBox="0 0 58 58" fill="none" xmlns="http://www.w3.org/2000/svg">
<rect width="58" height="58" rx="20" fill="#2F4283"/>
<path d="M36.8286 19.8008H20.3671C19.6129 19.8008 19 20.3963 19 21.1274V36.8742C19 37.6052 19.6129 38.2008 20.3671 38.2008H36.8286C37.5829 38.2008 38.2 37.6052 38.2 36.8742V21.1274C38.2 20.3963 37.5829 19.8008 36.8286 19.8008ZM24.8029 35.5722H21.9571V26.7911H24.8071V35.5722H24.8029ZM23.38 25.5919C22.4671 25.5919 21.73 24.8813 21.73 24.0106C21.73 23.1399 22.4671 22.4294 23.38 22.4294C24.2886 22.4294 25.03 23.1399 25.03 24.0106C25.03 24.8854 24.2929 25.5919 23.38 25.5919ZM35.47 35.5722H32.6243V31.3008C32.6243 30.2822 32.6029 28.972 31.1457 28.972C29.6629 28.972 29.4357 30.081 29.4357 31.2269V35.5722H26.59V26.7911H29.32V27.9904H29.3586C29.74 27.3004 30.67 26.5735 32.0543 26.5735C34.9343 26.5735 35.47 28.3929 35.47 30.7586V35.5722Z" fill="white"/>
</svg>
