<svg width="58" height="58" viewBox="0 0 58 58" fill="none" xmlns="http://www.w3.org/2000/svg">
<rect x="0.5" y="0.5" width="57" height="56.9219" rx="28.4609" stroke="#32325B"/>
<path d="M35.7908 25.0549C35.802 25.2252 35.802 25.3955 35.802 25.5659C35.802 30.7609 32.1726 36.7467 25.5391 36.7467C23.4954 36.7467 21.597 36.1019 20 34.9826C20.2904 35.0191 20.5695 35.0313 20.8711 35.0313C22.5573 35.0313 24.1096 34.4108 25.3492 33.3523C23.7634 33.3158 22.4345 32.1844 21.9766 30.6271C22.2 30.6635 22.4233 30.6879 22.6579 30.6879C22.9817 30.6879 23.3056 30.6392 23.6071 30.5541C21.9543 30.189 20.7147 28.6074 20.7147 26.6973V26.6487C21.1949 26.9407 21.7533 27.1232 22.3451 27.1475C21.3736 26.4418 20.737 25.2374 20.737 23.8747C20.737 23.1448 20.9157 22.4756 21.2284 21.8916C23.004 24.2762 25.6731 25.8335 28.6659 26.0038C28.6101 25.7118 28.5766 25.4077 28.5766 25.1036C28.5766 22.9379 30.1847 21.1738 32.1837 21.1738C33.2223 21.1738 34.1603 21.6483 34.8192 22.4148C35.6344 22.2445 36.4162 21.916 37.1086 21.4658C36.8405 22.3783 36.271 23.1448 35.5228 23.6314C36.2487 23.5463 36.9522 23.3272 37.5999 23.0231C37.1086 23.8017 36.4944 24.4952 35.7908 25.0549Z" fill="white"/>
</svg>
