<svg width="58" height="58" viewBox="0 0 58 58" fill="none" xmlns="http://www.w3.org/2000/svg">
<rect width="58" height="58" rx="20" fill="white"/>
<g clip-path="url(#clip0)">
<path d="M39.4375 18.5623C37.3544 16.4792 33.9782 16.4792 31.8963 18.5623L29 21.4582C27.2449 23.2121 26.9873 25.88 28.1904 27.9243L27.9248 28.1911C25.8806 26.9868 23.2126 27.2447 21.4576 28.9995L18.5633 31.8954C16.4802 33.9789 16.4802 37.3548 18.5633 39.4379C20.644 41.5198 24.0227 41.5214 26.1046 39.4394L29.0001 36.5432C30.7553 34.788 31.012 32.1213 29.8101 30.0763L30.0772 29.8091C32.1211 31.0122 34.7878 30.7543 36.5417 29.0007L39.4372 26.1064C41.5205 24.0217 41.5194 20.6442 39.4375 18.5623ZM27.1149 34.658L24.2194 37.5535C23.179 38.5927 21.4879 38.5927 20.4488 37.5523C19.408 36.5116 19.4073 34.8221 20.4472 33.7813L23.3443 30.8858C23.8471 30.3819 24.5162 30.1047 25.2298 30.1047C25.4642 30.1047 25.6906 30.1451 25.9118 30.2035L23.8159 32.2998C23.2975 32.8182 23.2975 33.667 23.8159 34.1854C24.3338 34.7033 25.183 34.7033 25.701 34.1854L27.7945 32.0919C28.0288 32.9796 27.8088 33.9628 27.1149 34.658ZM37.552 24.2197L34.6565 27.1155C33.9625 27.8107 32.9798 28.0295 32.0914 27.7951L34.1865 25.7C34.7044 25.182 34.7044 24.3328 34.1865 23.8148C33.6669 23.2964 32.8194 23.2964 32.2998 23.8148L30.2063 25.9095C29.9719 25.0216 30.1907 24.0384 30.8842 23.3444L33.7813 20.4473C34.2852 19.9434 34.9544 19.6662 35.6668 19.6662C36.3788 19.6662 37.0479 19.9434 37.552 20.4473C38.5923 21.4877 38.5923 23.1793 37.552 24.2197Z" fill="#3F3F3F"/>
</g>
<defs>
<clipPath id="clip0">
<rect width="24" height="24" fill="white" transform="translate(17 17)"/>
</clipPath>
</defs>
</svg>
