<svg width="7" height="7" viewBox="0 0 7 7" fill="none" xmlns="http://www.w3.org/2000/svg">
<path d="M3.81386 0.204215L4.62446 1.92238C4.67553 2.03009 4.77356 2.10506 4.88807 2.12229L6.70038 2.39802C6.98706 2.44197 7.10156 2.81076 6.89397 3.02187L5.58251 4.35918C5.50014 4.44362 5.46224 4.56426 5.48201 4.68317L5.79175 6.57108C5.84036 6.87008 5.5405 7.09756 5.28431 6.95711L3.66311 6.06528C3.56096 6.00927 3.43904 6.00927 3.33772 6.06528L1.71569 6.95711C1.45868 7.09842 1.15882 6.87008 1.20825 6.57108L1.51799 4.68317C1.53776 4.56426 1.49986 4.44362 1.41749 4.35918L0.10603 3.02187C-0.101562 2.8099 0.0129429 2.44111 0.299618 2.39802L2.11193 2.12229C2.22561 2.10506 2.32447 2.03009 2.37554 1.92238L3.18614 0.204215C3.31465 -0.0680718 3.68535 -0.0680718 3.81386 0.204215Z" fill="#FFB800"/>
</svg>
