<svg width="24" height="24" viewBox="0 0 24 24" fill="none" xmlns="http://www.w3.org/2000/svg">
<rect width="24" height="24" rx="4" fill="white"/>
<path d="M8.26401 16.8587V18.4756H15.7363V16.8587H8.26401ZM8.26401 14.1603V15.7772H15.7363V14.1603H8.26401ZM3.78065 15.7772H5.2751V20.0958C5.27012 21.4072 5.54809 21.7137 6.76956 21.7137H17.2307C18.4522 21.7137 18.7252 21.4698 18.7252 20.0958V15.7772H20.2196C21.4899 15.7988 21.7285 15.4928 21.7141 14.1593V8.22274C21.7141 6.95449 21.5248 6.60262 20.2196 6.60262H18.7252V3.90528C18.7396 2.57227 18.501 2.28516 17.2307 2.28516H6.76956C5.57399 2.28516 5.27012 2.59385 5.2751 3.90528V6.60262H3.78065C2.49542 6.60262 2.28619 6.90592 2.28619 8.22274V14.1593C2.28121 15.4707 2.58508 15.7988 3.78065 15.7772ZM17.2307 20.0947H6.76956V13.0788H17.2307V20.0947ZM18.1673 10.1116C18.1673 9.62592 18.5259 9.23789 18.9743 9.23789C19.4226 9.23789 19.7813 9.62592 19.7813 10.1116C19.7813 10.5973 19.4226 10.9859 18.9743 10.9859C18.5259 10.9859 18.1673 10.5973 18.1673 10.1116ZM6.76956 3.9042H17.2307V6.60478H6.76956V3.9042Z" fill="#D24644"/>
</svg>
