<svg width="32" height="23" viewBox="0 0 32 23" fill="none" xmlns="http://www.w3.org/2000/svg">
<path d="M31.3313 3.59872C30.9633 2.18218 29.879 1.06657 28.5022 0.687964C26.0067 0 16 0 16 0C16 0 5.99337 0 3.49781 0.687964C2.12103 1.06662 1.0367 2.18218 0.668671 3.59872C0 6.16628 0 11.5232 0 11.5232C0 11.5232 0 16.8802 0.668671 19.4478C1.0367 20.8643 2.12103 21.9334 3.49781 22.312C5.99337 23 16 23 16 23C16 23 26.0066 23 28.5022 22.312C29.879 21.9334 30.9633 20.8643 31.3313 19.4478C32 16.8802 32 11.5232 32 11.5232C32 11.5232 32 6.16628 31.3313 3.59872ZM12.7273 16.387V6.65952L21.0909 11.5234L12.7273 16.387Z" fill="white"/>
</svg>
