<svg width="15" height="15" viewBox="0 0 15 15" fill="none" xmlns="http://www.w3.org/2000/svg">
<path d="M7.5 0C3.36448 0 0 3.36448 0 7.5C0 11.6355 3.36448 15 7.5 15C11.6355 15 15 11.6355 15 7.5C15 3.36448 11.6355 0 7.5 0ZM1.93075 5.47242C2.31196 4.35803 3.03864 3.39926 4.03225 2.69977C5.04375 1.98771 6.24287 1.6113 7.5 1.6113C8.75713 1.6113 9.95625 1.98771 10.9678 2.69977C11.9614 3.39926 12.688 4.35803 13.0692 5.47242L13.2019 5.8602H1.7981L1.93075 5.47242ZM6.04729 13.2675C4.84345 13.0127 3.73913 12.3518 2.93783 11.4064C2.1271 10.4499 1.65729 9.2347 1.61496 7.98472L1.60263 7.62079L1.96072 7.68665C4.51151 8.15575 6.3789 10.3812 6.4009 12.9784L6.40397 13.3429L6.04729 13.2675ZM8.00317 9.5003C7.838 9.56851 7.67449 9.60164 7.50328 9.60164C7.09635 9.60164 6.53297 9.38812 6.28436 8.78637C6.11238 8.37009 6.18993 8.00889 6.28526 7.77917C6.38065 7.54945 6.58175 7.23961 6.99817 7.06764C7.16347 6.99938 7.32703 6.96618 7.49824 6.96618C7.90512 6.96618 8.46847 7.17967 8.71711 7.78134C8.9942 8.45212 8.6739 9.22324 8.00317 9.5003ZM12.0622 11.4064C11.2609 12.3518 10.1566 13.0127 8.95274 13.2675L8.59605 13.343L8.59913 12.9784C8.62113 10.3813 10.4885 8.15587 13.0392 7.68674L13.3974 7.62088L13.385 7.9848C13.3427 9.23476 12.8729 10.4499 12.0622 11.4064Z" fill="white"/>
</svg>
