<svg width="73" height="73" viewBox="0 0 73 73" fill="none" xmlns="http://www.w3.org/2000/svg">
<circle cx="36.5" cy="36.5" r="36.5" fill="#D24644"/>
<path d="M34.1311 50.2914L47.6234 42.5534C49.3554 41.56 50.3895 39.7801 50.3895 37.7923C50.3895 35.8045 49.3554 34.0245 47.6234 33.0311L34.1311 25.2932C32.3976 24.2988 30.329 24.3008 28.597 25.2986C26.8714 26.293 25.8408 28.071 25.8408 30.0544V45.5302C25.8408 47.5136 26.8714 49.2916 28.597 50.2859C29.4645 50.7858 30.4165 51.0356 31.369 51.0356C32.3176 51.0356 33.2661 50.7878 34.1311 50.2914Z" fill="white"/>
<path d="M34.1311 50.2914L47.6234 42.5534C49.3554 41.56 50.3895 39.7801 50.3895 37.7923C50.3895 35.8045 49.3554 34.0245 47.6234 33.0311L34.1311 25.2932C32.3976 24.2988 30.329 24.3008 28.597 25.2986C26.8714 26.293 25.8408 28.071 25.8408 30.0544V45.5302C25.8408 47.5136 26.8714 49.2916 28.597 50.2859C29.4645 50.7858 30.4165 51.0356 31.369 51.0356C32.3176 51.0356 33.2661 50.7878 34.1311 50.2914Z" stroke="white"/>
</svg>
