<svg width="18" height="23" viewBox="0 0 18 23" fill="none" xmlns="http://www.w3.org/2000/svg">
<path d="M17.3571 1.53907H12.5357L12.158 0.735554C12.078 0.563771 11.9548 0.419271 11.8022 0.31831C11.6496 0.217349 11.4736 0.163932 11.2942 0.16407H6.70179C6.52274 0.163334 6.34712 0.216551 6.19506 0.317625C6.04299 0.418698 5.92062 0.563539 5.84196 0.735554L5.46429 1.53907H0.642857C0.472361 1.53907 0.308848 1.6115 0.188289 1.74043C0.0677294 1.86936 0 2.04423 0 2.22657L0 3.60157C0 3.78391 0.0677294 3.95877 0.188289 4.0877C0.308848 4.21664 0.472361 4.28907 0.642857 4.28907H17.3571C17.5276 4.28907 17.6912 4.21664 17.8117 4.0877C17.9323 3.95877 18 3.78391 18 3.60157V2.22657C18 2.04423 17.9323 1.86936 17.8117 1.74043C17.6912 1.6115 17.5276 1.53907 17.3571 1.53907ZM2.1375 20.2305C2.16816 20.7541 2.38426 21.2455 2.74181 21.6048C3.09936 21.964 3.57147 22.164 4.06205 22.1641H13.9379C14.4285 22.164 14.9006 21.964 15.2582 21.6048C15.6157 21.2455 15.8318 20.7541 15.8625 20.2305L16.7143 5.66407H1.28571L2.1375 20.2305Z" fill="#C71B1B"/>
</svg>
