<svg width="178" height="62" viewBox="0 0 178 62" fill="none" xmlns="http://www.w3.org/2000/svg">
<path d="M80.4647 36.8016H76.5079V28.3301C76.5079 27.2836 76.3306 26.5008 75.976 25.9819C75.63 25.4543 75.0808 25.1905 74.3284 25.1905C73.3165 25.1905 72.5813 25.5624 72.1229 26.3062C71.6645 27.05 71.4353 28.2738 71.4353 29.9777V36.8016H67.4785V22.2975H70.5013L71.0332 24.1527H71.2537C71.6429 23.4867 72.2051 22.9678 72.9402 22.5959C73.6754 22.2153 74.5187 22.0251 75.47 22.0251C77.6409 22.0251 79.1112 22.7343 79.8809 24.1527H80.2312C80.6204 23.4781 81.1912 22.9548 81.9437 22.5829C82.7048 22.211 83.561 22.0251 84.5124 22.0251C86.1556 22.0251 87.3967 22.4489 88.2357 23.2964C89.0833 24.1354 89.5071 25.4846 89.5071 27.3441V36.8016H85.5372V28.3301C85.5372 27.2836 85.3599 26.5008 85.0053 25.9819C84.6594 25.4543 84.1102 25.1905 83.3577 25.1905C82.3891 25.1905 81.6626 25.5365 81.1782 26.2284C80.7026 26.9203 80.4647 28.0187 80.4647 29.5236V36.8016Z" fill="white" fill-opacity="0.21"/>
<path d="M102.792 36.8016L102.026 34.8296H101.922C101.256 35.6686 100.569 36.2524 99.8597 36.581C99.1591 36.901 98.2424 37.061 97.1094 37.061C95.7169 37.061 94.6185 36.6632 93.8142 35.8675C93.0185 35.0718 92.6206 33.9388 92.6206 32.4685C92.6206 30.929 93.1569 29.796 94.2293 29.0695C95.3104 28.3344 96.9364 27.9279 99.1072 27.85L101.624 27.7722V27.1365C101.624 25.6662 100.872 24.9311 99.3667 24.9311C98.2078 24.9311 96.8456 25.2814 95.2801 25.9819L93.9698 23.3094C95.6391 22.4359 97.4899 21.9991 99.5224 21.9991C101.468 21.9991 102.96 22.4229 103.998 23.2705C105.036 24.1181 105.555 25.4068 105.555 27.1365V36.8016H102.792ZM101.624 30.0814L100.093 30.1333C98.9429 30.1679 98.0867 30.3755 97.5245 30.7561C96.9623 31.1366 96.6812 31.7161 96.6812 32.4945C96.6812 33.6102 97.3213 34.168 98.6013 34.168C99.5181 34.168 100.249 33.9042 100.794 33.3766C101.347 32.8491 101.624 32.1485 101.624 31.275V30.0814Z" fill="white" fill-opacity="0.21"/>
<path d="M123.03 36.8016H119.073V28.3301C119.073 27.2836 118.887 26.5008 118.515 25.9819C118.143 25.4543 117.551 25.1905 116.738 25.1905C115.631 25.1905 114.831 25.5624 114.338 26.3062C113.845 27.0414 113.598 28.2652 113.598 29.9777V36.8016H109.642V22.2975H112.664L113.196 24.1527H113.417C113.858 23.4521 114.463 22.9245 115.233 22.5699C116.011 22.2067 116.894 22.0251 117.88 22.0251C119.566 22.0251 120.846 22.4835 121.72 23.4002C122.593 24.3084 123.03 25.623 123.03 27.3441V36.8016Z" fill="white" fill-opacity="0.21"/>
<path d="M133.214 33.9085C133.906 33.9085 134.736 33.7572 135.705 33.4545V36.3994C134.719 36.8405 133.508 37.061 132.072 37.061C130.489 37.061 129.335 36.6632 128.608 35.8675C127.891 35.0632 127.532 33.861 127.532 32.2609V25.2684H125.637V23.5948L127.817 22.2716L128.959 19.2099H131.488V22.2975H135.549V25.2684H131.488V32.2609C131.488 32.8231 131.644 33.2383 131.955 33.5064C132.275 33.7745 132.695 33.9085 133.214 33.9085Z" fill="white" fill-opacity="0.21"/>
<path d="M152.038 36.8016H148.081V28.3301C148.081 26.237 147.303 25.1905 145.746 25.1905C144.639 25.1905 143.839 25.5668 143.346 26.3192C142.853 27.0717 142.606 28.2911 142.606 29.9777V36.8016H138.65V16.6152H142.606V20.7277C142.606 21.0478 142.576 21.8002 142.516 22.9851L142.425 24.1527H142.632C143.515 22.7343 144.916 22.0251 146.836 22.0251C148.54 22.0251 149.833 22.4835 150.715 23.4002C151.597 24.317 152.038 25.6316 152.038 27.3441V36.8016Z" fill="white" fill-opacity="0.21"/>
<path d="M166.386 36.8016L165.854 34.9464H165.647C165.223 35.621 164.622 36.1443 163.844 36.5162C163.065 36.8794 162.179 37.061 161.184 37.061C159.48 37.061 158.196 36.607 157.331 35.6989C156.466 34.7821 156.034 33.4675 156.034 31.755V22.2975H159.991V30.769C159.991 31.8155 160.177 32.6026 160.548 33.1302C160.92 33.6491 161.513 33.9085 162.326 33.9085C163.433 33.9085 164.233 33.541 164.726 32.8058C165.219 32.062 165.465 30.8339 165.465 29.1214V22.2975H169.422V36.8016H166.386Z" fill="white" fill-opacity="0.21"/>
<path d="M177.53 36.8016H173.574V16.6152H177.53V36.8016Z" fill="white" fill-opacity="0.21"/>
<path d="M0.30862 26.1738C0.308621 22.8592 0.961491 19.577 2.22995 16.5146C3.49842 13.4523 5.35764 10.6698 7.70146 8.32594C10.0453 5.98213 12.8278 4.12291 15.8901 2.85445C18.9525 1.58598 22.2347 0.933111 25.5493 0.933111C28.864 0.933111 32.1462 1.58598 35.2085 2.85445C38.2709 4.12291 41.0534 5.98213 43.3972 8.32595C45.741 10.6698 47.6002 13.4523 48.8687 16.5146C50.1372 19.577 50.79 22.8592 50.79 26.1738L38.1697 26.1738C38.1697 24.5165 37.8432 22.8754 37.209 21.3442C36.5748 19.8131 35.6452 18.4218 34.4733 17.2499C33.3014 16.078 31.9101 15.1484 30.3789 14.5141C28.8478 13.8799 27.2067 13.5535 25.5493 13.5535C23.892 13.5535 22.2509 13.8799 20.7197 14.5141C19.1886 15.1484 17.7973 16.078 16.6254 17.2499C15.4535 18.4218 14.5239 19.813 13.8896 21.3442C13.2554 22.8754 12.929 24.5165 12.929 26.1738L0.30862 26.1738Z" fill="white" fill-opacity="0.21"/>
<path fill-rule="evenodd" clip-rule="evenodd" d="M16.9064 47.0385C14.9884 46.2441 13.1931 45.1907 11.5693 43.9108L16.7895 38.6906C17.6974 39.3259 18.6738 39.8621 19.7025 40.2882C21.556 41.0559 23.5426 41.4511 25.5488 41.4511C27.5551 41.4511 29.5417 41.0559 31.3952 40.2882C32.4238 39.8621 33.4003 39.3259 34.3081 38.6906L39.5284 43.9108C37.9045 45.1907 36.1092 46.2441 34.1913 47.0385C31.4513 48.1735 28.5146 48.7576 25.5488 48.7576C22.5831 48.7576 19.6464 48.1735 16.9064 47.0385ZM41.4188 45.8013C42.1076 45.2443 42.768 44.6505 43.3967 44.0217L34.4728 35.0978C33.3009 36.2697 31.9096 37.1993 30.3784 37.8335C28.8473 38.4677 27.2062 38.7942 25.5488 38.7942C23.8915 38.7942 22.2504 38.4677 20.7192 37.8335C19.1881 37.1993 17.7968 36.2697 16.6249 35.0978L7.70095 44.0217C8.3297 44.6505 8.99001 45.2443 9.67883 45.8013C11.5578 47.3205 13.6488 48.565 15.8896 49.4932C18.952 50.7617 22.2342 51.4145 25.5488 51.4145C28.8635 51.4145 32.1457 50.7617 35.208 49.4932C37.4489 48.565 39.5399 47.3205 41.4188 45.8013Z" fill="white" fill-opacity="0.21"/>
</svg>
