<svg width="185" height="52" viewBox="0 0 185 52" fill="none" xmlns="http://www.w3.org/2000/svg">
<path d="M84.8517 27.2766C84.8517 29.508 84.4539 31.3804 83.6582 32.894C82.8711 34.3989 81.7122 35.5016 80.1813 36.2022L84.7479 41.3006H79.5975L76.1207 37.0454H75.8223C72.9163 37.0454 70.6849 36.2022 69.1281 34.5156C67.5714 32.8291 66.793 30.4074 66.793 27.2506C66.793 24.0938 67.5714 21.6851 69.1281 20.0245C70.6936 18.3553 72.9336 17.5207 75.8483 17.5207C78.7629 17.5207 80.99 18.3596 82.5295 20.0375C84.0776 21.7154 84.8517 24.1284 84.8517 27.2766ZM71.0093 27.2766C71.0093 29.3955 71.4114 30.9912 72.2158 32.0637C73.0201 33.1361 74.2223 33.6724 75.8223 33.6724C79.031 33.6724 80.6354 31.5404 80.6354 27.2766C80.6354 23.0041 79.0397 20.8678 75.8483 20.8678C74.2483 20.8678 73.0417 21.4084 72.2288 22.4895C71.4158 23.5619 71.0093 25.1576 71.0093 27.2766Z" fill="white" fill-opacity="0.21"/>
<path d="M98.746 36.7859L98.2141 34.9308H98.0066C97.5828 35.6054 96.9817 36.1286 96.2033 36.5005C95.4249 36.8638 94.5384 37.0454 93.5438 37.0454C91.8399 37.0454 90.5556 36.5914 89.6907 35.6832C88.8258 34.7665 88.3934 33.4518 88.3934 31.7394V22.2819H92.3502V30.7534C92.3502 31.7999 92.5362 32.5869 92.9081 33.1145C93.28 33.6335 93.8724 33.8929 94.6854 33.8929C95.7925 33.8929 96.5925 33.5253 97.0855 32.7902C97.5784 32.0464 97.8249 30.8183 97.8249 29.1058V22.2819H101.782V36.7859H98.746Z" fill="white" fill-opacity="0.21"/>
<path d="M111.94 24.8246C111.101 24.8246 110.444 25.0927 109.968 25.629C109.492 26.1566 109.22 26.909 109.151 27.8863H114.703C114.686 26.909 114.431 26.1566 113.938 25.629C113.445 25.0927 112.779 24.8246 111.94 24.8246ZM112.498 37.0454C110.162 37.0454 108.338 36.4011 107.023 35.1124C105.708 33.8237 105.051 31.9988 105.051 29.6377C105.051 27.2074 105.656 25.3306 106.867 24.0073C108.087 22.6754 109.769 22.0094 111.914 22.0094C113.964 22.0094 115.559 22.5932 116.701 23.7608C117.843 24.9284 118.413 26.5414 118.413 28.5998V30.5199H109.06C109.103 31.6442 109.436 32.5221 110.059 33.1534C110.681 33.7848 111.555 34.1005 112.679 34.1005C113.553 34.1005 114.379 34.0097 115.157 33.8281C115.936 33.6464 116.749 33.3567 117.596 32.9588V36.0205C116.904 36.3665 116.165 36.6216 115.378 36.7859C114.591 36.9589 113.631 37.0454 112.498 37.0454Z" fill="white" fill-opacity="0.21"/>
<path d="M135.019 36.7859H131.062V28.3144C131.062 27.2679 130.876 26.4852 130.504 25.9663C130.133 25.4387 129.54 25.1749 128.727 25.1749C127.62 25.1749 126.82 25.5468 126.327 26.2906C125.834 27.0258 125.588 28.2496 125.588 29.962V36.7859H121.631V22.2819H124.654L125.185 24.1371H125.406C125.847 23.4365 126.453 22.9089 127.222 22.5543C128.001 22.1911 128.883 22.0094 129.869 22.0094C131.555 22.0094 132.835 22.4678 133.709 23.3846C134.582 24.2927 135.019 25.6074 135.019 27.3285V36.7859Z" fill="white" fill-opacity="0.21"/>
<path d="M148.304 36.7859L147.538 34.814H147.435C146.769 35.653 146.081 36.2367 145.372 36.5654C144.671 36.8854 143.754 37.0454 142.621 37.0454C141.229 37.0454 140.131 36.6476 139.326 35.8519C138.531 35.0562 138.133 33.9232 138.133 32.4529C138.133 30.9134 138.669 29.7804 139.741 29.0539C140.823 28.3188 142.449 27.9123 144.619 27.8344L147.136 27.7566V27.1209C147.136 25.6506 146.384 24.9154 144.879 24.9154C143.72 24.9154 142.358 25.2657 140.792 25.9663L139.482 23.2938C141.151 22.4203 143.002 21.9835 145.035 21.9835C146.98 21.9835 148.472 22.4073 149.51 23.2549C150.548 24.1025 151.067 25.3911 151.067 27.1209V36.7859H148.304ZM147.136 30.0658L145.605 30.1177C144.455 30.1523 143.599 30.3599 143.037 30.7404C142.474 31.121 142.193 31.7004 142.193 32.4788C142.193 33.5945 142.833 34.1524 144.113 34.1524C145.03 34.1524 145.761 33.8886 146.306 33.361C146.859 32.8334 147.136 32.1329 147.136 31.2594V30.0658Z" fill="white" fill-opacity="0.21"/>
<path d="M154.596 34.9308C154.596 34.2043 154.79 33.6551 155.18 33.2832C155.569 32.9113 156.135 32.7253 156.879 32.7253C157.597 32.7253 158.15 32.9156 158.54 33.2962C158.937 33.6767 159.136 34.2216 159.136 34.9308C159.136 35.614 158.937 36.1546 158.54 36.5524C158.142 36.9416 157.588 37.1362 156.879 37.1362C156.153 37.1362 155.59 36.946 155.193 36.5654C154.795 36.1762 154.596 35.6313 154.596 34.9308Z" fill="white" fill-opacity="0.21"/>
<path d="M162.561 18.5326C162.561 17.2439 163.279 16.5996 164.715 16.5996C166.151 16.5996 166.868 17.2439 166.868 18.5326C166.868 19.1467 166.687 19.6267 166.324 19.9726C165.969 20.31 165.433 20.4786 164.715 20.4786C163.279 20.4786 162.561 19.8299 162.561 18.5326ZM166.687 36.7859H162.73V22.2819H166.687V36.7859Z" fill="white" fill-opacity="0.21"/>
<path d="M174.004 29.508C174.004 30.9437 174.237 32.0291 174.704 32.7642C175.18 33.4994 175.95 33.867 177.014 33.867C178.069 33.867 178.825 33.5037 179.284 32.7772C179.751 32.0421 179.984 30.9523 179.984 29.508C179.984 28.0723 179.751 26.9955 179.284 26.2776C178.817 25.5598 178.051 25.2009 176.988 25.2009C175.932 25.2009 175.171 25.5598 174.704 26.2776C174.237 26.9868 174.004 28.0636 174.004 29.508ZM184.032 29.508C184.032 31.8691 183.409 33.7156 182.164 35.0475C180.918 36.3795 179.184 37.0454 176.962 37.0454C175.569 37.0454 174.341 36.7427 173.277 36.1373C172.213 35.5232 171.396 34.6454 170.825 33.5037C170.254 32.3621 169.969 31.0302 169.969 29.508C169.969 27.1382 170.587 25.296 171.824 23.9814C173.061 22.6668 174.799 22.0094 177.039 22.0094C178.432 22.0094 179.66 22.3122 180.724 22.9176C181.788 23.523 182.605 24.3922 183.176 25.5252C183.747 26.6582 184.032 27.9858 184.032 29.508Z" fill="white" fill-opacity="0.21"/>
<path d="M50.6357 26.1587C50.6357 40.0987 39.3351 51.3994 25.395 51.3994C11.4549 51.3994 0.154297 40.0987 0.154297 26.1587C0.154297 12.2186 11.4549 0.917969 25.395 0.917969C39.3351 0.917969 50.6357 12.2186 50.6357 26.1587Z" fill="white" fill-opacity="0.21"/>
<path d="M37.3517 32.8019C35.8561 32.8019 35.6832 31.1413 33.3752 31.1413C31.0571 31.1413 30.8759 32.8019 29.3854 32.8019C27.9072 32.8019 27.7065 31.1413 25.3956 31.1413C23.1089 31.1413 22.8753 32.8019 21.4191 32.8019C19.9167 32.8019 19.7537 31.1413 17.4293 31.1413C15.1049 31.1413 14.9391 32.8019 13.4395 32.8019V28.6504C13.4395 27.2753 14.587 26.1596 16.0015 26.1596H16.8555V18.687H20.2715V26.1596H23.6876V18.687H27.1036V26.1596H30.5196V18.687H33.9357V26.1596H34.7897C36.2041 26.1596 37.3517 27.2753 37.3517 28.6504V32.8019ZM37.3517 39.4442H13.4395V34.4625C15.7536 34.4625 15.9357 32.8019 17.4293 32.8019C18.9212 32.8019 19.0974 34.4625 21.4191 34.4625C23.7059 34.4625 23.9393 32.8019 25.3956 32.8019C26.898 32.8019 27.061 34.4625 29.3854 34.4625C31.6996 34.4625 31.8816 32.8019 33.3752 32.8019C34.8424 32.8019 35.0433 34.4625 37.3517 34.4625V39.4442ZM18.5635 17.8567C17.6161 17.8567 16.8555 17.1172 16.8555 16.1961C16.8555 14.5875 18.5635 15.0026 18.5635 12.875C19.204 12.875 20.2715 14.4058 20.2715 15.781C20.2715 17.1562 19.5109 17.8567 18.5635 17.8567ZM25.3956 17.8567C24.4482 17.8567 23.6876 17.1172 23.6876 16.1961C23.6876 14.5875 25.3956 15.0026 25.3956 12.875C26.0361 12.875 27.1036 14.4058 27.1036 15.781C27.1036 17.1562 26.343 17.8567 25.3956 17.8567ZM32.2276 17.8567C31.2802 17.8567 30.5196 17.1172 30.5196 16.1961C30.5196 14.5875 32.2276 15.0026 32.2276 12.875C32.8682 12.875 33.9357 14.4058 33.9357 15.781C33.9357 17.1562 33.1751 17.8567 32.2276 17.8567Z" fill="black"/>
</svg>
