<svg width="147" height="33" viewBox="0 0 147 33" fill="none" xmlns="http://www.w3.org/2000/svg">
<path d="M20.1048 30.0055C18.9683 30.9084 17.4894 31.609 15.6679 32.1071C13.8465 32.6053 11.6047 32.8544 8.94261 32.8544C6.29607 32.8544 3.47829 32.6131 0.489258 32.1305V1.35281C3.50943 0.870208 6.12483 0.628906 8.33547 0.628906C10.5617 0.628906 12.3831 0.839073 13.7998 1.25941C15.232 1.67974 16.3996 2.24797 17.3026 2.96409C19.0773 4.34963 19.9647 6.14772 19.9647 8.35836C19.9647 10.5534 19.1629 12.3749 17.5594 13.8227C19.4587 14.4143 20.9299 15.5351 21.9729 17.1853C22.9226 18.6643 23.3974 20.3067 23.3974 22.1126C23.3974 23.9029 23.1327 25.4363 22.6034 26.7129C22.0897 27.9894 21.2568 29.087 20.1048 30.0055ZM6.67749 12.9587C7.33134 13.0676 8.14865 13.1221 9.12943 13.1221C10.1102 13.1221 10.9119 12.9976 11.5347 12.7485C12.1729 12.4838 12.6633 12.1569 13.0058 11.7677C13.5663 11.1294 13.8465 10.2421 13.8465 9.10561C13.8465 6.72373 12.4454 5.53279 9.64317 5.53279C8.46001 5.53279 7.47145 5.57949 6.67749 5.6729V12.9587ZM10.1336 17.9559C8.82585 17.9559 7.67383 18.0416 6.67749 18.2128V27.3901C7.76724 27.6703 8.91148 27.8104 10.1102 27.8104C11.3089 27.8104 12.3598 27.6703 13.2627 27.3901C14.1812 27.0943 14.9518 26.6973 15.5745 26.1991C16.8355 25.1717 17.466 23.864 17.466 22.276C17.466 19.396 15.0219 17.9559 10.1336 17.9559Z" fill="white" fill-opacity="0.21"/>
<path d="M26.1062 20.1977C26.1062 18.4853 26.3942 16.8506 26.9702 15.2938C27.5618 13.7215 28.4025 12.3515 29.4922 11.1839C31.8741 8.66193 34.9643 7.40093 38.7629 7.40093C42.5459 7.40093 45.5505 8.59187 47.7767 10.9738C49.9095 13.2467 50.9759 16.1968 50.9759 19.8241C50.9759 23.4514 49.8783 26.456 47.6833 28.8379C45.3637 31.3599 42.289 32.6209 38.4593 32.6209C34.5051 32.6209 31.4071 31.3832 29.1653 28.9079C27.1259 26.6506 26.1062 23.7472 26.1062 20.1977ZM31.7807 20.0576C31.7807 21.0384 31.9441 21.988 32.2711 22.9065C32.598 23.825 33.065 24.6112 33.6722 25.2651C34.9643 26.6817 36.6612 27.3901 38.7629 27.3901C40.7089 27.3901 42.2423 26.6973 43.3632 25.3118C44.4529 23.9729 44.9978 22.2293 44.9978 20.081C44.9978 17.9015 44.4374 16.1423 43.3165 14.8035C42.1178 13.3712 40.4753 12.6551 38.3892 12.6551C36.272 12.6551 34.614 13.4179 33.4153 14.9436C32.3256 16.3447 31.7807 18.0494 31.7807 20.0576Z" fill="white" fill-opacity="0.21"/>
<path d="M54.0817 20.1977C54.0817 18.4853 54.3697 16.8506 54.9457 15.2938C55.5373 13.7215 56.3779 12.3515 57.4677 11.1839C59.8496 8.66193 62.9398 7.40093 66.7383 7.40093C70.5213 7.40093 73.5259 8.59187 75.7521 10.9738C77.8849 13.2467 78.9513 16.1968 78.9513 19.8241C78.9513 23.4514 77.8538 26.456 75.6587 28.8379C73.3391 31.3599 70.2645 32.6209 66.4348 32.6209C62.4805 32.6209 59.3825 31.3832 57.1408 28.9079C55.1014 26.6506 54.0817 23.7472 54.0817 20.1977ZM59.7562 20.0576C59.7562 21.0384 59.9196 21.988 60.2465 22.9065C60.5735 23.825 61.0405 24.6112 61.6476 25.2651C62.9398 26.6817 64.6367 27.3901 66.7383 27.3901C68.6843 27.3901 70.2178 26.6973 71.3387 25.3118C72.4284 23.9729 72.9733 22.2293 72.9733 20.081C72.9733 17.9015 72.4128 16.1423 71.2919 14.8035C70.0932 13.3712 68.4508 12.6551 66.3647 12.6551C64.2475 12.6551 62.5895 13.4179 61.3908 14.9436C60.301 16.3447 59.7562 18.0494 59.7562 20.0576Z" fill="white" fill-opacity="0.21"/>
<path d="M92.0517 32.6209C87.6616 32.6209 84.3534 31.8191 82.1272 30.2157C82.1583 29.7486 82.205 29.2193 82.2673 28.6277L82.4775 26.9464C82.602 25.8411 82.6798 25.1561 82.711 24.8914C82.7421 24.6112 82.7655 24.4633 82.781 24.4478C82.7966 24.4166 82.9212 24.5412 83.1547 24.8214C83.3882 25.086 83.8319 25.413 84.4857 25.8022C85.1396 26.1914 85.8946 26.5338 86.7508 26.8296C88.6034 27.4679 90.5338 27.7871 92.5421 27.7871C95.2353 27.7871 96.582 26.8919 96.582 25.1016C96.582 24.5256 96.3251 24.0975 95.8113 23.8173C94.8928 23.3502 93.5384 22.9999 91.7481 22.7664C89.9734 22.5173 88.5178 22.1593 87.3813 21.6922C86.2449 21.2252 85.3186 20.6648 84.6025 20.0109C83.2792 18.781 82.6176 17.1698 82.6176 15.1771C82.6176 12.7485 83.5517 10.8414 85.4198 9.45589C87.2724 8.08592 89.8333 7.40093 93.1025 7.40093C96.3407 7.40093 99.104 8.31944 101.392 10.1564C101.283 10.5612 101.167 10.9504 101.042 11.324C100.684 12.3515 100.419 13.091 100.248 13.5425L99.7111 14.9202C99.68 15.0448 99.6566 15.107 99.641 15.107C99.6099 15.107 99.4854 14.9436 99.2674 14.6166C98.2866 13.4802 96.761 12.7329 94.6905 12.3749C94.0522 12.2503 93.3983 12.1881 92.7289 12.1881C89.8956 12.1881 88.4789 13.0443 88.4789 14.7568C88.4789 15.3483 88.7747 15.7998 89.3662 16.1112C90.4716 16.7027 91.9817 17.1386 93.8965 17.4189C95.8269 17.6991 97.2903 18.0805 98.2866 18.5631C99.283 19.0301 100.085 19.5984 100.692 20.2678C101.813 21.4821 102.373 23.0933 102.373 25.1016C102.373 27.2967 101.494 29.0792 99.7345 30.4492C97.8974 31.897 95.3365 32.6209 92.0517 32.6209Z" fill="white" fill-opacity="0.21"/>
<path d="M116.011 32.6209C111.621 32.6209 108.312 31.8191 106.086 30.2157C106.117 29.7486 106.164 29.2193 106.226 28.6277L106.436 26.9464C106.561 25.8411 106.639 25.1561 106.67 24.8914C106.701 24.6112 106.724 24.4633 106.74 24.4478C106.756 24.4166 106.88 24.5412 107.114 24.8214C107.347 25.086 107.791 25.413 108.445 25.8022C109.099 26.1914 109.854 26.5338 110.71 26.8296C112.562 27.4679 114.493 27.7871 116.501 27.7871C119.194 27.7871 120.541 26.8919 120.541 25.1016C120.541 24.5256 120.284 24.0975 119.77 23.8173C118.852 23.3502 117.497 22.9999 115.707 22.7664C113.932 22.5173 112.477 22.1593 111.34 21.6922C110.204 21.2252 109.278 20.6648 108.561 20.0109C107.238 18.781 106.577 17.1698 106.577 15.1771C106.577 12.7485 107.511 10.8414 109.379 9.45589C111.231 8.08592 113.792 7.40093 117.061 7.40093C120.3 7.40093 123.063 8.31944 125.351 10.1564C125.242 10.5612 125.126 10.9504 125.001 11.324C124.643 12.3515 124.378 13.091 124.207 13.5425L123.67 14.9202C123.639 15.0448 123.616 15.107 123.6 15.107C123.569 15.107 123.444 14.9436 123.226 14.6166C122.246 13.4802 120.72 12.7329 118.649 12.3749C118.011 12.2503 117.357 12.1881 116.688 12.1881C113.855 12.1881 112.438 13.0443 112.438 14.7568C112.438 15.3483 112.734 15.7998 113.325 16.1112C114.431 16.7027 115.941 17.1386 117.855 17.4189C119.786 17.6991 121.249 18.0805 122.246 18.5631C123.242 19.0301 124.044 19.5984 124.651 20.2678C125.772 21.4821 126.332 23.0933 126.332 25.1016C126.332 27.2967 125.453 29.0792 123.693 30.4492C121.856 31.897 119.295 32.6209 116.011 32.6209Z" fill="white" fill-opacity="0.21"/>
<path d="M142.585 27.1332C144.593 27.1332 145.971 26.6117 146.718 25.5686H146.905L146.975 30.9863C146.212 31.7491 144.796 32.255 142.725 32.5041C142.165 32.582 141.464 32.6209 140.623 32.6209C139.798 32.6209 138.895 32.4652 137.915 32.1539C136.949 31.8425 136.124 31.3365 135.439 30.636C134.023 29.1882 133.314 26.923 133.314 23.8406V13.2389H129.788C129.773 12.7874 129.765 12.3282 129.765 11.8611V8.26495C129.765 8.00029 129.773 7.86797 129.788 7.86797H133.314V1.2127H139.036V7.86797H145.457V13.2389H139.036V22.7664C139.036 25.2106 139.713 26.6039 141.067 26.9464C141.503 27.0709 142.009 27.1332 142.585 27.1332Z" fill="white" fill-opacity="0.21"/>
</svg>
