<svg width="173" height="54" viewBox="0 0 173 54" fill="none" xmlns="http://www.w3.org/2000/svg">
<path d="M35.91 29.7502C35.91 33.253 35.9722 35.5025 36.0968 36.4989H30.002V12.0962H35.91V14.1979C38.0428 12.4854 40.23 11.6292 42.4718 11.6292C45.1184 11.6292 47.041 12.7734 48.2397 15.0619C49.4384 13.8321 50.4348 13.0225 51.2287 12.6333C52.552 11.9639 53.8753 11.6292 55.1986 11.6292C56.5374 11.6292 57.6738 11.8549 58.6079 12.3064C59.542 12.7579 60.3126 13.3962 60.9198 14.2213C62.1496 15.887 62.7645 18.1755 62.7645 21.0867V30.3807C62.7645 33.0117 62.8035 34.5918 62.8813 35.1211C62.9591 35.6504 63.0603 35.9929 63.1849 36.1486C63.325 36.3043 63.4417 36.4444 63.5352 36.5689L63.4884 36.6623C62.243 36.5534 61.3245 36.4989 60.7329 36.4989H58.9816C58.4055 36.4989 57.6972 36.5222 56.8565 36.5689V23.9356C56.8565 20.2927 56.2961 18.1288 55.1752 17.4438C54.8016 17.2259 54.3579 17.1169 53.8442 17.1169C53.346 17.1169 52.9023 17.1791 52.5131 17.3037C52.1239 17.4127 51.7581 17.5995 51.4156 17.8641C50.8396 18.2845 50.1857 19.1096 49.454 20.3394C49.4696 20.464 49.4774 20.5885 49.4774 20.7131C49.4774 20.8376 49.4774 22.8926 49.4774 26.8779C49.4774 30.8633 49.5708 34.0703 49.7576 36.4989C48.4343 36.4989 47.3056 36.4989 46.3716 36.4989C45.4531 36.4989 44.5735 36.5222 43.7328 36.5689V23.9123C43.7328 21.3747 43.5771 19.7245 43.2658 18.9617C42.97 18.1988 42.6509 17.7007 42.3084 17.4672C41.9659 17.2336 41.5455 17.1169 41.0474 17.1169C38.9924 17.1169 37.2799 18.1054 35.91 20.0826V29.7502Z" fill="white" fill-opacity="0.21"/>
<path d="M85.6493 35.0511C83.4387 36.2498 81.4382 36.8492 79.6479 36.8492C77.8576 36.8492 76.3242 36.6857 75.0476 36.3588C73.771 36.0163 72.6891 35.5181 71.8017 34.8643C69.9958 33.541 69.0929 31.6261 69.0929 29.1197C69.0929 26.8779 70.1982 25.0098 72.4088 23.5153C74.8063 21.8962 78.06 21.0867 82.1699 21.0867L83.104 21.11C83.2908 21.1256 83.5009 21.1412 83.7345 21.1567C83.968 21.1567 84.1782 21.1723 84.365 21.2034C84.2404 18.7126 83.1662 17.257 81.1424 16.8367C80.473 16.6965 79.7569 16.6265 78.9941 16.6265C78.2468 16.6265 77.5073 16.6965 76.7756 16.8367C76.0595 16.9612 75.359 17.1324 74.674 17.3504C73.1639 17.833 72.0819 18.3857 71.4281 19.0084L71.358 18.9617L70.6575 13.8009C73.413 12.3531 76.4254 11.6292 79.6946 11.6292C84.7697 11.6292 88.0156 13.4584 89.4323 17.1169C89.8838 18.2845 90.1095 19.6 90.1095 21.0633V29.5167C90.1095 31.3226 90.7478 32.5524 92.0244 33.2063L87.7977 37.0827C86.9103 36.6156 86.1942 35.9384 85.6493 35.0511ZM84.3883 25.4068C83.968 25.3289 83.5321 25.29 83.0806 25.29H82.1465C78.706 25.29 76.5188 26.0528 75.5847 27.5785C75.3045 28.03 75.1644 28.5048 75.1644 29.0029C75.1644 29.5011 75.25 29.9448 75.4212 30.334C75.608 30.7076 75.9116 31.019 76.3319 31.2681C77.1415 31.7351 78.3402 31.9686 79.9281 31.9686C81.5316 31.9686 83.0261 31.5872 84.4117 30.8244C84.3961 30.6531 84.3883 30.4741 84.3883 30.2873V25.4068Z" fill="white" fill-opacity="0.21"/>
<path d="M96.2043 5.30086C97.2162 3.6818 98.3761 2.15615 99.6838 0.723906L104.144 4.25003C103.366 5.24637 102.836 5.93136 102.556 6.30499L101.739 7.44923C101.474 7.80729 101.194 8.21205 100.898 8.66352L96.2043 5.30086ZM93.6123 40.1184C95.9163 40.1184 97.0684 38.4059 97.0684 34.981V12.0962H102.743V33.2997C102.743 39.8382 100.882 43.7068 97.1618 44.9055C95.9475 45.2947 94.5697 45.4893 93.0285 45.4893L90.5999 39.3478L90.6466 39.231C91.534 39.8226 92.5225 40.1184 93.6123 40.1184Z" fill="white" fill-opacity="0.21"/>
<path d="M108.674 5.1374C109.92 3.19141 111.22 1.47895 112.574 0L117.595 3.94646C116.925 4.77155 116.302 5.58108 115.726 6.37504C115.726 6.37504 115.127 7.22349 113.928 8.92039L108.674 5.1374ZM114.816 33.8835C114.816 35.2223 114.847 36.0941 114.909 36.4989H108.978V12.0962H114.816V33.8835Z" fill="white" fill-opacity="0.21"/>
<path d="M127.566 33.5098C127.566 34.8798 127.628 35.8762 127.753 36.4989H121.891V12.0962H127.566V14.1745C129.621 12.4777 131.816 11.6292 134.151 11.6292C136.704 11.6292 138.744 12.501 140.269 14.2446C141.795 15.9726 142.558 18.2533 142.558 21.0867V30.3807C142.558 33.0117 142.597 34.5918 142.674 35.1211C142.752 35.6504 142.853 35.9929 142.978 36.1486C143.118 36.3043 143.235 36.4444 143.328 36.5689L143.282 36.6623C142.021 36.5534 141.102 36.4989 140.526 36.4989H138.891C138.393 36.4989 137.724 36.5222 136.883 36.5689V23.8422C136.883 19.2808 135.498 17.0001 132.727 17.0001C130.672 17.0001 128.951 18.0587 127.566 20.176V33.5098Z" fill="white" fill-opacity="0.21"/>
<path d="M148.232 24.496C148.232 22.6746 148.544 20.9855 149.166 19.4287C149.789 17.8719 150.669 16.5097 151.805 15.3421C154.234 12.8668 157.409 11.6292 161.333 11.6292C164.648 11.6292 167.311 12.7267 169.319 14.9218C171.296 17.039 172.285 19.7011 172.285 22.9081C172.285 24.138 172.191 24.9787 172.004 25.4301C170.448 25.866 167.279 26.084 162.5 26.084H154.28C154.685 27.7497 155.627 29.0497 157.106 29.9837C158.585 30.9022 160.507 31.3615 162.874 31.3615C165.349 31.3615 167.474 30.9178 169.249 30.0304C169.716 29.7969 170.066 29.579 170.3 29.3766C170.268 30.0304 170.23 30.6998 170.183 31.3848L169.926 35.0277C168.743 35.8372 166.828 36.3977 164.181 36.709C163.403 36.8025 162.656 36.8492 161.94 36.8492C157.985 36.8492 154.716 35.6971 152.132 33.3931C149.532 31.0735 148.232 28.1078 148.232 24.496ZM166.073 21.5537C165.435 18.2066 163.613 16.5331 160.609 16.5331C158.242 16.5331 156.444 17.5528 155.214 19.5922C154.841 20.2149 154.553 20.8999 154.35 21.6471C154.724 21.6627 155.183 21.6783 155.728 21.6938H157.456C158.032 21.7094 158.585 21.7172 159.114 21.7172H160.445C161.239 21.7172 162.018 21.7094 162.78 21.6938L164.695 21.6238C165.209 21.6082 165.668 21.5849 166.073 21.5537Z" fill="white" fill-opacity="0.21"/>
<path d="M6.62716 12.707C8.8378 11.5083 10.8383 10.909 12.6286 10.909C14.4189 10.909 15.9523 11.0724 17.2289 11.3993C18.5054 11.7418 19.5874 12.24 20.4748 12.8939C22.2807 14.2171 23.1836 16.132 23.1836 18.6384C23.1836 20.8802 22.0783 22.7483 19.8676 24.2428C17.4702 25.8619 14.2165 26.6714 10.1066 26.6714L9.17251 26.6481C8.98569 26.6325 8.77553 26.6169 8.54201 26.6014C8.30849 26.6014 8.09833 26.5858 7.91151 26.5547C8.03605 29.0455 9.11024 30.5011 11.1341 30.9215C11.8035 31.0616 12.5196 31.1316 13.2824 31.1316C14.0297 31.1316 14.7692 31.0616 15.5008 30.9215C16.217 30.7969 16.9175 30.6257 17.6025 30.4077C19.1126 29.9251 20.1946 29.3724 20.8484 28.7497L20.9185 28.7964L21.619 33.9572C18.8635 35.405 15.8511 36.1289 12.5819 36.1289C7.50675 36.1289 4.26085 34.2997 2.84417 30.6412C2.3927 29.4736 2.16697 28.1582 2.16697 26.6948V18.2414C2.16697 16.4355 1.52868 15.2057 0.252117 14.5518L4.4788 10.6754C5.36616 11.1425 6.08229 11.8197 6.62716 12.707ZM7.88816 22.3513C8.30849 22.4292 8.74439 22.4681 9.19586 22.4681H10.1299C13.5704 22.4681 15.7577 21.7053 16.6918 20.1796C16.972 19.7282 17.1121 19.2533 17.1121 18.7552C17.1121 18.257 17.0265 17.8133 16.8553 17.4241C16.6684 17.0505 16.3649 16.7391 15.9445 16.49C15.135 16.023 13.9363 15.7895 12.3484 15.7895C10.7449 15.7895 9.25035 16.1709 7.86481 16.9337C7.88037 17.105 7.88816 17.284 7.88816 17.4708V22.3513Z" fill="white" fill-opacity="0.21"/>
<path d="M7.41289 49.6229C6.37531 48.5853 6.37531 46.903 7.41289 45.8654L9.6807 43.5976C10.7183 42.56 12.4005 42.56 13.4381 43.5976L15.7059 45.8654C16.7435 46.903 16.7435 48.5853 15.7059 49.6229L13.4381 51.8907C12.4005 52.9283 10.7183 52.9283 9.6807 51.8907L7.41289 49.6229Z" fill="white" fill-opacity="0.21"/>
</svg>
