<svg width="170" height="33" viewBox="0 0 170 33" fill="none" xmlns="http://www.w3.org/2000/svg">
<path d="M57.1175 16.3529H66.6126L63.8805 29.2042C62.3738 29.7214 60.974 30.07 59.681 30.2499C58.3993 30.441 57.0388 30.5366 55.5997 30.5366C52.6876 30.5366 50.4389 29.7102 48.8536 28.0574C47.2683 26.4046 46.4756 24.0322 46.4756 20.9403C46.4756 17.927 47.0771 15.2061 48.2802 12.7775C49.4832 10.3377 51.1754 8.46004 53.3566 7.14455C55.5378 5.81782 58.0564 5.15446 60.9122 5.15446C63.3633 5.15446 65.6682 5.71101 67.8269 6.82411L65.8874 11.0573C65.0554 10.6075 64.2234 10.2477 63.3914 9.97791C62.5594 9.70806 61.6543 9.57314 60.6761 9.57314C58.9558 9.57314 57.4155 10.0397 56.055 10.973C54.7058 11.9062 53.6433 13.2385 52.8675 14.97C52.1029 16.6903 51.7207 18.5454 51.7207 20.5355C51.7207 22.4694 52.1254 23.8917 52.935 24.8024C53.7557 25.7019 55.0094 26.1516 56.6959 26.1516C57.5504 26.1516 58.5061 26.0167 59.563 25.7469L60.6761 20.7042H56.1731L57.1175 16.3529Z" fill="white" fill-opacity="0.21"/>
<path d="M73.949 30.1993H68.8726L74.4381 3.95703H79.5145L73.949 30.1993Z" fill="white" fill-opacity="0.21"/>
<path d="M92.0791 18.4611C92.0791 16.2461 91.2752 15.1387 89.6674 15.1387C88.8241 15.1387 88.0652 15.4816 87.3906 16.1674C86.7272 16.8533 86.1819 17.8596 85.7546 19.1863C85.3386 20.513 85.1306 21.8791 85.1306 23.2845C85.1306 25.3646 85.9739 26.4046 87.6604 26.4046C88.5037 26.4046 89.2626 26.0617 89.9372 25.3758C90.6118 24.6787 91.1346 23.7174 91.5057 22.4919C91.8879 21.2551 92.0791 19.9115 92.0791 18.4611ZM97.1892 18.4611C97.1892 20.8335 96.7901 22.936 95.9918 24.7687C95.2048 26.6014 94.0635 28.0237 92.5682 29.0356C91.0728 30.0362 89.2963 30.5366 87.2388 30.5366C85.0463 30.5366 83.2923 29.8788 81.9768 28.5634C80.6726 27.2366 80.0205 25.477 80.0205 23.2845C80.0205 20.8897 80.4196 18.7591 81.2179 16.8926C82.0274 15.015 83.1911 13.5646 84.709 12.5414C86.2269 11.507 88.0033 10.9898 90.0384 10.9898C92.2421 10.9898 93.9848 11.6532 95.2666 12.9799C96.5484 14.3066 97.1892 16.1337 97.1892 18.4611Z" fill="white" fill-opacity="0.21"/>
<path d="M113.144 15.6952C112.447 17.6965 111.755 19.4899 111.069 21.0752L107.14 30.1993H101.675L100.815 11.344H105.554L105.622 19.6923L105.554 22.5087L105.436 25.3927H105.504C105.571 25.1678 105.65 24.9373 105.74 24.7012C105.83 24.4539 106.117 23.6837 106.6 22.3907C107.083 21.0977 107.342 20.4287 107.376 20.3837L111.272 11.344H116.803V20.3837C116.803 21.9803 116.747 23.65 116.635 25.3927H116.736L117.208 24.0435C118.029 21.7048 118.563 20.2544 118.81 19.6923L122.504 11.344H127.682L118.743 30.1993H113.177L113.076 21.4294C113.076 19.6866 113.132 17.7752 113.245 15.6952H113.144Z" fill="white" fill-opacity="0.21"/>
<path d="M150.112 5.54236L146.722 21.4968C146.081 24.4876 144.856 26.7419 143.046 28.2598C141.236 29.7776 138.88 30.5366 135.979 30.5366C133.596 30.5366 131.718 29.9013 130.346 28.6308C128.986 27.3491 128.306 25.6176 128.306 23.4363C128.306 22.6268 128.39 21.851 128.558 21.1089L131.864 5.54236H137.008L133.736 21.0415C133.545 21.8735 133.449 22.5762 133.449 23.1496C133.449 25.151 134.512 26.1516 136.637 26.1516C138.02 26.1516 139.116 25.7244 139.926 24.8699C140.735 24.0041 141.32 22.7167 141.68 21.0077L144.951 5.54236H150.112Z" fill="white" fill-opacity="0.21"/>
<path d="M158.612 17.1456H159.557C161.153 17.1456 162.407 16.7577 163.318 15.9819C164.24 15.2061 164.701 14.1661 164.701 12.8619C164.701 10.838 163.604 9.82612 161.412 9.82612H160.164L158.612 17.1456ZM169.878 12.7269C169.878 15.4366 168.923 17.5672 167.011 19.1188C165.111 20.6592 162.486 21.4294 159.135 21.4294H157.685L155.846 30.1993H150.702L155.914 5.54236H161.614C164.335 5.54236 166.393 6.14388 167.787 7.34694C169.181 8.53874 169.878 10.3321 169.878 12.7269Z" fill="white" fill-opacity="0.21"/>
<path d="M27.5966 10.1822H17.0569L20.9477 2.09935C21.313 1.15282 20.2627 0.21875 18.8288 0.21875H5.67705C4.58107 0.21875 3.64949 0.772966 3.50336 1.514L0.580756 16.4592C0.407226 17.3559 1.43014 18.1529 2.75444 18.1529H13.5955L9.38511 30.2647C9.05631 31.2113 10.1158 32.1018 11.5131 32.1018C12.2803 32.1018 13.011 31.8278 13.4128 31.3545L29.4872 12.424C30.3365 11.4338 29.2862 10.1822 27.5966 10.1822Z" fill="white" fill-opacity="0.21"/>
</svg>
