<svg width="24" height="24" viewBox="0 0 24 24" fill="none" xmlns="http://www.w3.org/2000/svg">
<g clip-path="url(#clip0)">
<path d="M22 8H1C0.447 8 0 7.552 0 7C0 6.448 0.447 6 1 6H22C22.553 6 23 6.448 23 7C23 7.552 22.553 8 22 8Z" fill="white"/>
<path d="M17.9997 7.5C17.5247 7.5 17.1037 7.162 17.0177 6.679L16.3167 2.821C16.2297 2.345 15.8147 2 15.3317 2H7.66965C7.18665 2 6.77165 2.345 6.68565 2.821L5.98365 6.679C5.88665 7.223 5.36665 7.583 4.82165 7.484C4.27765 7.385 3.91765 6.865 4.01765 6.321L4.71865 2.463C4.97765 1.036 6.21865 0 7.66965 0H15.3317C16.7827 0 18.0237 1.036 18.2827 2.463L18.9837 6.321C19.0837 6.864 18.7227 7.385 18.1787 7.484C18.1187 7.495 18.0597 7.5 17.9997 7.5Z" fill="white"/>
<path d="M19.25 24C18.776 24 18.334 23.814 18.003 23.477L13.806 19.445C13.28 18.912 13 18.226 13 17.5V14.25C13 13.561 13.561 13 14.25 13H17.5C18.228 13 18.913 13.281 19.43 13.792L23.493 18.019C23.814 18.335 24 18.778 24 19.25C24 19.717 23.818 20.157 23.487 20.487L20.487 23.487C20.158 23.818 19.718 24 19.25 24Z" fill="white"/>
<path d="M6.18957 14.9996H10.9996V16.9996H6.18957C4.71957 16.9996 3.47957 15.9496 3.23957 14.4896L2.00957 7.15957C1.91957 6.61957 2.28957 6.09957 2.83957 6.00957C3.37957 5.91957 3.89957 6.28957 3.98957 6.83957L5.20957 14.1596C5.28957 14.6496 5.69957 14.9996 6.18957 14.9996Z" fill="white"/>
<path d="M20.9898 7.15957L20.1998 11.8496C19.6298 11.4496 18.9898 11.1796 18.2998 11.0696L19.0098 6.83957C19.0998 6.28957 19.6198 5.91957 20.1598 6.00957C20.7098 6.09957 21.0798 6.61957 20.9898 7.15957Z" fill="white"/>
</g>
<defs>
<clipPath id="clip0">
<rect width="24" height="24" fill="white"/>
</clipPath>
</defs>
</svg>
