<svg width="58" height="58" viewBox="0 0 58 58" fill="none" xmlns="http://www.w3.org/2000/svg">
<rect width="58" height="58" rx="20" fill="#CE1743"/>
<path d="M28.802 24.4868C26.3048 24.4868 24.2906 26.5015 24.2906 28.9992C24.2906 31.497 26.3048 33.5116 28.802 33.5116C31.2991 33.5116 33.3134 31.497 33.3134 28.9992C33.3134 26.5015 31.2991 24.4868 28.802 24.4868ZM28.802 31.9329C27.1882 31.9329 25.869 30.6172 25.869 28.9992C25.869 27.3812 27.1843 26.0656 28.802 26.0656C30.4196 26.0656 31.735 27.3812 31.735 28.9992C31.735 30.6172 30.4157 31.9329 28.802 31.9329ZM34.5502 24.3022C34.5502 24.8874 34.079 25.3547 33.4979 25.3547C32.9129 25.3547 32.4456 24.8835 32.4456 24.3022C32.4456 23.721 32.9168 23.2497 33.4979 23.2497C34.079 23.2497 34.5502 23.721 34.5502 24.3022ZM37.5382 25.3704C37.4714 23.9605 37.1494 22.7117 36.1168 21.6827C35.0881 20.6538 33.8395 20.3318 32.4299 20.2611C30.9772 20.1786 26.6228 20.1786 25.1701 20.2611C23.7644 20.3278 22.5158 20.6499 21.4832 21.6788C20.4506 22.7078 20.1325 23.9566 20.0618 25.3665C19.9794 26.8196 19.9794 31.1749 20.0618 32.628C20.1286 34.0379 20.4506 35.2868 21.4832 36.3157C22.5158 37.3446 23.7605 37.6667 25.1701 37.7374C26.6228 37.8198 30.9772 37.8198 32.4299 37.7374C33.8395 37.6706 35.0881 37.3486 36.1168 36.3157C37.1455 35.2868 37.4675 34.0379 37.5382 32.628C37.6206 31.1749 37.6206 26.8235 37.5382 25.3704ZM35.6613 34.1871C35.3551 34.9569 34.7622 35.5499 33.9887 35.8601C32.8304 36.3196 30.082 36.2136 28.802 36.2136C27.522 36.2136 24.7696 36.3157 23.6152 35.8601C22.8456 35.5538 22.2528 34.9608 21.9426 34.1871C21.4832 33.0286 21.5892 30.2795 21.5892 28.9992C21.5892 27.7189 21.4871 24.9659 21.9426 23.8113C22.2488 23.0416 22.8417 22.4486 23.6152 22.1383C24.7735 21.6788 27.522 21.7848 28.802 21.7848C30.082 21.7848 32.8344 21.6827 33.9887 22.1383C34.7583 22.4446 35.3512 23.0376 35.6613 23.8113C36.1207 24.9699 36.0147 27.7189 36.0147 28.9992C36.0147 30.2795 36.1207 33.0325 35.6613 34.1871Z" fill="white"/>
</svg>
