<svg width="58" height="58" viewBox="0 0 58 58" fill="none" xmlns="http://www.w3.org/2000/svg">
<rect width="58" height="58" rx="20" fill="#D51919"/>
<path d="M41.4776 23.0156C41.1901 21.907 40.3429 21.0339 39.2673 20.7376C37.3177 20.1992 29.5 20.1992 29.5 20.1992C29.5 20.1992 21.6823 20.1992 19.7327 20.7376C18.6571 21.034 17.8099 21.907 17.5224 23.0156C17 25.025 17 29.2174 17 29.2174C17 29.2174 17 33.4098 17.5224 35.4192C17.8099 36.5278 18.6571 37.3645 19.7327 37.6608C21.6823 38.1992 29.5 38.1992 29.5 38.1992C29.5 38.1992 37.3177 38.1992 39.2673 37.6608C40.3429 37.3645 41.1901 36.5278 41.4776 35.4192C42 33.4098 42 29.2174 42 29.2174C42 29.2174 42 25.025 41.4776 23.0156ZM26.9432 33.0238V25.411L33.4772 29.2175L26.9432 33.0238Z" fill="white"/>
</svg>
