<svg width="58" height="58" viewBox="0 0 58 58" fill="none" xmlns="http://www.w3.org/2000/svg">
<rect x="0.5" y="0.5" width="57" height="56.9219" rx="28.4609" stroke="#32325B"/>
<path d="M36.8286 19.7734H20.3671C19.6129 19.7734 19 20.3682 19 21.0983V36.8238C19 37.5539 19.6129 38.1487 20.3671 38.1487H36.8286C37.5829 38.1487 38.2 37.5539 38.2 36.8238V21.0983C38.2 20.3682 37.5829 19.7734 36.8286 19.7734ZM24.8029 35.5236H21.9571V26.7544H24.8071V35.5236H24.8029ZM23.38 25.5567C22.4671 25.5567 21.73 24.8471 21.73 23.9776C21.73 23.108 22.4671 22.3985 23.38 22.3985C24.2886 22.3985 25.03 23.108 25.03 23.9776C25.03 24.8512 24.2929 25.5567 23.38 25.5567ZM35.47 35.5236H32.6243V31.2579C32.6243 30.2407 32.6029 28.9323 31.1457 28.9323C29.6629 28.9323 29.4357 30.0398 29.4357 31.1841V35.5236H26.59V26.7544H29.32V27.952H29.3586C29.74 27.263 30.67 26.537 32.0543 26.537C34.9343 26.537 35.47 28.354 35.47 30.7165V35.5236Z" fill="white"/>
</svg>
